<?xml version="1.0" encoding="UTF-8"?>
<svg id="Capa_1" data-name="Capa 1" xmlns="http://www.w3.org/2000/svg" viewBox="0 0 975.82 341.08">
  <defs>
    <style>
      .cls-1 {
        fill: #cf3132;
      }

      .cls-2 {
        fill: #fff;
      }

      .cls-3 {
        fill: #8a532a;
      }

      .cls-4 {
        fill: #f4c356;
      }
    </style>
  </defs>
  <g>
    <path class="cls-4" d="M256.92,76.7l-8.82,140.8-43.74,1.92.38-74.24-19.76,59.85h-16.88l-15.15-53.52-.19,62.15-44.31,1.34,1.92-132.55,49.3-1.92,19.57,63.49,26.09-67.33h51.6Z"/>
    <path class="cls-4" d="M383.23,208.29l-47.57,6.14-5.75-21.68h-21.87l-4.8,21.68-48.92-4.8,38.17-127.76,53.33-2.69,37.41,129.1ZM326.45,163.41l-7.29-33.38-7.1,33.38h14.39Z"/>
    <path class="cls-4" d="M483.46,165.52c0,8.76-1.52,16.42-4.56,22.97-3.04,6.56-7.19,12.01-12.47,16.35-5.28,4.35-11.45,7.61-18.51,9.78-7.07,2.17-14.66,3.26-22.78,3.26-3.13,0-6.57-.42-10.31-1.25-3.74-.83-7.53-1.87-11.37-3.12-3.84-1.25-7.53-2.59-11.08-4.03-3.55-1.44-6.7-2.8-9.45-4.08l4.22-39.52c5.43,3.26,11.46,5.74,18.08,7.43,6.62,1.69,13.12,2.54,19.52,2.54,1.21,0,2.69-.05,4.41-.14,1.73-.1,3.37-.38,4.94-.86,1.57-.48,2.89-1.2,3.98-2.16,1.09-.96,1.63-2.33,1.63-4.12,0-1.21-.38-2.25-1.15-3.12-.77-.86-1.76-1.57-2.97-2.11-1.22-.54-2.59-.96-4.12-1.25-1.54-.29-3.04-.49-4.51-.62-1.47-.13-2.85-.19-4.12-.19h-3.07c-5.5,0-10.5-.96-15.01-2.88-4.51-1.92-8.38-4.59-11.61-8.01-3.23-3.42-5.74-7.48-7.53-12.18-1.79-4.7-2.69-9.8-2.69-15.3,0-7.54,1.52-14.31,4.56-20.29,3.04-5.98,7.1-11.06,12.18-15.25,5.08-4.19,10.92-7.4,17.5-9.64,6.58-2.24,13.39-3.36,20.43-3.36,3.13,0,6.36.11,9.69.34,3.32.22,6.63.62,9.93,1.2,3.29.58,6.51,1.31,9.64,2.21,3.13.9,6.11,2.01,8.92,3.36l-3.64,38.94c-4.35-1.47-8.91-2.7-13.67-3.69-4.76-.99-9.42-1.49-13.96-1.49-.83,0-1.9.02-3.21.05-1.31.03-2.69.13-4.12.29-1.44.16-2.89.4-4.36.72-1.47.32-2.78.75-3.93,1.29-1.15.54-2.08,1.26-2.78,2.16-.71.9-1.02,1.95-.96,3.17.06,1.41.59,2.54,1.58,3.4.99.86,2.27,1.53,3.84,2.01,1.57.48,3.29.82,5.18,1.01,1.89.19,3.76.3,5.61.34,1.85.03,3.58.03,5.18,0,1.6-.03,2.91.02,3.93.14,5.12.32,9.72,1.41,13.81,3.26,4.09,1.85,7.56,4.32,10.41,7.39,2.84,3.07,5.02,6.73,6.52,10.98,1.5,4.25,2.25,8.94,2.25,14.05Z"/>
    <path class="cls-4" d="M608.05,148.83c0,5.82-.67,11.43-2.01,16.83-1.34,5.4-3.28,10.47-5.8,15.2-2.53,4.73-5.6,9.06-9.21,13-3.61,3.93-7.67,7.31-12.18,10.12-4.51,2.81-9.42,5-14.72,6.57-5.31,1.57-10.93,2.35-16.88,2.35s-11.24-.73-16.45-2.21c-5.21-1.47-10.09-3.53-14.63-6.19-4.54-2.65-8.65-5.85-12.33-9.59-3.68-3.74-6.81-7.9-9.4-12.47-2.59-4.57-4.6-9.48-6.04-14.72-1.44-5.24-2.16-10.71-2.16-16.4s.67-11.01,2.01-16.35c1.34-5.34,3.28-10.37,5.8-15.11,2.53-4.73,5.58-9.08,9.16-13.04,3.58-3.96,7.59-7.39,12.04-10.26,4.44-2.88,9.26-5.12,14.43-6.71,5.18-1.6,10.65-2.4,16.4-2.4,9.27,0,17.73,1.44,25.37,4.32,7.64,2.88,14.16,6.99,19.57,12.32,5.4,5.34,9.59,11.8,12.56,19.37s4.46,16.03,4.46,25.37ZM565.47,151.32c0-2.75-.4-5.42-1.2-8.01-.8-2.59-1.97-4.89-3.5-6.91-1.54-2.01-3.44-3.64-5.71-4.89-2.27-1.25-4.88-1.87-7.82-1.87s-5.69.54-8.06,1.63c-2.37,1.09-4.4,2.57-6.09,4.46-1.7,1.89-2.99,4.09-3.88,6.62-.9,2.53-1.34,5.2-1.34,8.01s.38,5.37,1.15,8.06c.77,2.69,1.92,5.12,3.45,7.29,1.54,2.17,3.44,3.93,5.71,5.28,2.27,1.34,4.91,2.01,7.91,2.01s5.71-.59,8.1-1.77c2.4-1.18,4.43-2.78,6.09-4.8,1.66-2.01,2.94-4.33,3.84-6.95.9-2.62,1.34-5.34,1.34-8.15Z"/>
    <path class="cls-4" d="M745.21,79l-6.91,130.06-50.26,4.6-26.86-69.63-4.22,70.98h-43.16l3.45-136,47.96-2.3,33.19,69.06,1.53-65.22,45.27-1.53Z"/>
  </g>
  <g>
    <path class="cls-3" d="M199.07,243.87c-.13,2.02-.25,4.02-.35,6-.11,1.98-.25,3.98-.42,6l-13.67.71-.32,4.06h9.61l-.71,9.99-9.67.32-.32,4.71h13.67c-.13,2.36-.26,4.71-.4,7.04s-.26,4.67-.37,7.01l-27.79.64,1.03-46.48h29.72Z"/>
    <path class="cls-3" d="M233.18,273.2c0,2.94-.51,5.52-1.53,7.72-1.02,2.2-2.42,4.03-4.19,5.5-1.77,1.46-3.85,2.56-6.22,3.29-2.37.73-4.93,1.1-7.66,1.1-1.05,0-2.21-.14-3.46-.42s-2.53-.63-3.82-1.05c-1.29-.42-2.53-.87-3.72-1.35-1.19-.48-2.25-.94-3.17-1.37l1.42-13.28c1.83,1.1,3.85,1.93,6.08,2.5,2.22.57,4.41.85,6.56.85.41,0,.9-.02,1.48-.05.58-.03,1.13-.13,1.66-.29s.97-.4,1.34-.73c.37-.32.55-.78.55-1.39,0-.41-.13-.76-.39-1.05-.26-.29-.59-.53-1-.71-.41-.18-.87-.32-1.39-.42s-1.02-.17-1.52-.21c-.49-.04-.96-.06-1.39-.06h-1.03c-1.85,0-3.53-.32-5.04-.97-1.51-.65-2.82-1.54-3.9-2.69-1.08-1.15-1.93-2.51-2.53-4.09-.6-1.58-.9-3.29-.9-5.14,0-2.54.51-4.81,1.53-6.82,1.02-2.01,2.39-3.72,4.09-5.12,1.71-1.41,3.67-2.49,5.88-3.24,2.21-.75,4.5-1.13,6.87-1.13,1.05,0,2.14.04,3.26.11,1.12.08,2.23.21,3.34.4,1.11.19,2.19.44,3.24.74,1.05.3,2.05.68,3,1.13l-1.22,13.09c-1.46-.49-2.99-.91-4.59-1.24-1.6-.33-3.16-.5-4.69-.5-.28,0-.64,0-1.08.02-.44.01-.9.04-1.39.1-.48.05-.97.13-1.47.24-.5.11-.93.25-1.32.44-.39.18-.7.42-.94.73-.24.3-.34.66-.32,1.06.02.47.2.85.53,1.14.33.29.76.52,1.29.68s1.11.27,1.74.34c.63.06,1.26.1,1.88.11.62.01,1.2.01,1.74,0,.54-.01.98,0,1.32.05,1.72.11,3.27.47,4.64,1.1,1.38.62,2.54,1.45,3.5,2.48.96,1.03,1.69,2.26,2.19,3.69s.76,3,.76,4.72Z"/>
    <path class="cls-3" d="M268.54,244.26l-.32,13.67-9.61.39-2.45,30.56-13.6.71.06-30.56-9.61.52.39-15.21,35.13-.06Z"/>
    <path class="cls-3" d="M306.51,287.58l-15.99,2.06-1.93-7.28h-7.35l-1.61,7.28-16.44-1.61,12.83-42.94,17.92-.9,12.57,43.39ZM287.42,272.49l-2.45-11.22-2.39,11.22h4.83ZM302.19,234.14c-2.56,1.4-5.05,2.81-7.48,4.24-2.43,1.43-4.86,2.98-7.29,4.66l-4.13-4.51c.43-.52.95-1.09,1.55-1.72s1.24-1.28,1.92-1.95c.68-.67,1.38-1.34,2.11-2.01s1.44-1.33,2.13-1.95c1.63-1.48,3.34-2.98,5.12-4.48l6.06,7.74Z"/>
    <path class="cls-3" d="M352.02,245.03l-1.8,13.6c-.62-.17-1.25-.29-1.87-.35s-1.25-.1-1.87-.1c-1.59,0-3.11.21-4.54.63s-2.71,1.06-3.82,1.92c-1.11.86-1.99,1.93-2.64,3.22-.66,1.29-.98,2.8-.98,4.54,0,1.12.18,2.08.53,2.9.35.82.85,1.49,1.5,2.03s1.41.93,2.29,1.19,1.85.39,2.9.39c.79,0,1.62-.09,2.48-.26.86-.17,1.71-.4,2.55-.68s1.65-.6,2.45-.97c.79-.37,1.53-.74,2.19-1.13l-1.29,15.15c-.84.43-1.75.81-2.72,1.14-.98.33-1.98.62-3.01.87-1.03.25-2.06.44-3.09.56s-2.02.19-2.97.19c-2.73,0-5.28-.5-7.64-1.52-2.36-1.01-4.42-2.4-6.16-4.16-1.74-1.76-3.11-3.84-4.11-6.24s-1.5-4.98-1.5-7.75c0-3.67.53-7.14,1.58-10.4,1.05-3.26,2.6-6.11,4.64-8.56,2.04-2.45,4.57-4.38,7.59-5.8,3.02-1.42,6.5-2.13,10.43-2.13,1.48,0,3,.12,4.56.35,1.56.24,3,.68,4.33,1.32Z"/>
    <path class="cls-3" d="M392.6,254.51c0,1.59-.08,3.34-.23,5.25-.15,1.91-.4,3.89-.74,5.93-.34,2.04-.79,4.11-1.34,6.21s-1.23,4.11-2.05,6.04c-.82,1.93-1.77,3.74-2.85,5.43-1.09,1.69-2.33,3.16-3.74,4.42-1.41,1.26-2.98,2.25-4.72,2.97-1.74.72-3.67,1.08-5.8,1.08-2.49,0-4.66-.4-6.5-1.21-1.84-.81-3.41-1.89-4.72-3.26-1.31-1.36-2.39-2.95-3.22-4.77s-1.49-3.74-1.97-5.77c-.47-2.03-.8-4.1-.98-6.22-.18-2.12-.27-4.15-.27-6.11,0-3.01.15-6.01.45-9.01s.73-5.99,1.29-8.98l15.08.58c-.58,3.37-1.08,6.76-1.5,10.17s-.63,6.83-.63,10.27c0,.37.02.91.05,1.63.03.72.09,1.53.18,2.42.09.89.21,1.81.37,2.74s.38,1.79.66,2.56c.28.77.62,1.41,1.01,1.9.4.49.87.74,1.4.74.62,0,1.18-.29,1.68-.89.49-.59.93-1.38,1.3-2.37.38-.99.7-2.13.98-3.42.28-1.29.52-2.63.71-4.03s.35-2.79.47-4.19c.12-1.4.21-2.7.29-3.9.08-1.2.12-2.27.14-3.19s.03-1.61.03-2.06c0-1.68-.03-3.35-.08-5.01-.05-1.67-.13-3.33-.24-4.98h15.09c.26,2.97.39,5.97.39,9.02Z"/>
    <path class="cls-3" d="M445.01,243.36l-2.96,47.32-14.7.64.13-24.95-6.64,20.11h-5.67l-5.09-17.99-.06,20.89-14.89.45.64-44.55,16.57-.64,6.58,21.34,8.77-22.63h17.34Z"/>
    <path class="cls-3" d="M484.92,259.34c0,2.08-.31,3.93-.94,5.54s-1.48,3.02-2.56,4.22c-1.08,1.2-2.36,2.22-3.82,3.06-1.46.84-3.03,1.52-4.69,2.05-1.67.53-3.39.91-5.17,1.16-1.78.25-3.54.38-5.25.4v15.02h-15.02c0-4.92.01-9.82.03-14.7.02-4.88.05-9.8.1-14.76.04-2.62.05-5.24.03-7.86-.02-2.62.03-5.26.16-7.93,2.75-.82,5.5-1.43,8.25-1.84s5.59-.61,8.51-.61c1.65,0,3.31.13,4.96.4,1.65.27,3.24.69,4.75,1.27,1.51.58,2.92,1.31,4.22,2.18,1.3.87,2.42,1.91,3.37,3.11.95,1.2,1.69,2.57,2.24,4.11.55,1.54.82,3.26.82,5.17ZM470.61,260.44c0-1.4-.42-2.49-1.27-3.27-.85-.78-1.95-1.18-3.3-1.18-.45,0-.92.04-1.4.11-.48.08-.94.17-1.37.27l-.39,9.41c.3.04.59.06.87.06h.87c.77,0,1.52-.13,2.24-.39s1.36-.63,1.92-1.11,1-1.05,1.34-1.71c.33-.66.5-1.39.5-2.21Z"/>
    <path class="cls-3" d="M515.03,271.98l-1.35,14.31-27.14,2.13c.13-7.5.27-14.96.44-22.37.16-7.41.36-14.87.6-22.37h16.76c-.49,4.71-.97,9.41-1.42,14.1-.45,4.7-.77,9.43-.97,14.2,1.01.04,2.01.06,3,.06h3c1.2,0,2.38-.01,3.55-.03,1.16-.02,2.34-.03,3.55-.03Z"/>
    <path class="cls-3" d="M533.95,244.97l-3.55,43.9-13.6.71v-43.71l17.15-.9Z"/>
    <path class="cls-3" d="M566.7,243.87c-.13,2.02-.25,4.02-.35,6-.11,1.98-.25,3.98-.42,6l-13.67.71-.32,4.06h9.61l-.71,9.99-9.67.32-.32,4.71h13.67c-.13,2.36-.26,4.71-.4,7.04s-.26,4.67-.37,7.01l-27.79.64,1.03-46.48h29.72Z"/>
    <path class="cls-3" d="M611.63,244.13l-2.32,43.71-16.89,1.55-9.03-23.4-1.42,23.85h-14.5l1.16-45.71,16.12-.77,11.15,23.21.52-21.92,15.21-.52Z"/>
    <path class="cls-3" d="M650.76,264.76c0,3.01-.39,5.72-1.16,8.14s-1.85,4.57-3.24,6.45c-1.39,1.88-3.04,3.5-4.95,4.85-1.91,1.35-4.01,2.47-6.29,3.34-2.28.87-4.7,1.51-7.27,1.93-2.57.42-5.21.63-7.91.63-1.01,0-2-.03-2.97-.08-.97-.05-1.96-.13-2.97-.24l.9-43.26c2.36-.75,4.8-1.28,7.3-1.6,2.5-.31,4.99-.47,7.46-.47,3.07,0,5.9.46,8.48,1.39,2.58.92,4.8,2.26,6.67,4,1.87,1.74,3.33,3.87,4.37,6.38,1.04,2.51,1.56,5.36,1.56,8.54ZM637.54,266.82c.02-1.16-.1-2.28-.37-3.35-.27-1.07-.71-2.02-1.32-2.85-.61-.83-1.39-1.49-2.34-2-.95-.5-2.07-.78-3.38-.82l-1.29,19.98c1.29-.19,2.46-.62,3.51-1.27,1.05-.66,1.96-1.46,2.72-2.42.76-.96,1.35-2.02,1.77-3.19s.65-2.38.69-3.63v-.45Z"/>
    <path class="cls-3" d="M692.53,267.6c0,1.96-.23,3.84-.68,5.66s-1.1,3.52-1.95,5.11c-.85,1.59-1.88,3.05-3.09,4.37-1.21,1.32-2.58,2.46-4.09,3.4-1.51.95-3.16,1.68-4.95,2.21-1.78.53-3.67.79-5.67.79s-3.78-.25-5.53-.74c-1.75-.49-3.39-1.19-4.92-2.08-1.53-.89-2.91-1.97-4.14-3.22-1.24-1.26-2.29-2.65-3.16-4.19-.87-1.54-1.55-3.19-2.03-4.95-.48-1.76-.73-3.6-.73-5.51s.23-3.7.68-5.5c.45-1.79,1.1-3.49,1.95-5.08.85-1.59,1.88-3.05,3.08-4.38,1.2-1.33,2.55-2.48,4.05-3.45,1.49-.97,3.11-1.72,4.85-2.26,1.74-.54,3.58-.81,5.51-.81,3.12,0,5.96.48,8.53,1.45,2.57.97,4.76,2.35,6.58,4.14s3.22,3.96,4.22,6.51c1,2.55,1.5,5.39,1.5,8.53ZM678.22,268.43c0-.92-.13-1.82-.4-2.69-.27-.87-.66-1.64-1.18-2.32-.52-.68-1.16-1.22-1.92-1.64-.76-.42-1.64-.63-2.63-.63s-1.91.18-2.71.55-1.48.87-2.05,1.5c-.57.63-1,1.38-1.31,2.22-.3.85-.45,1.75-.45,2.69s.13,1.81.39,2.71c.26.9.64,1.72,1.16,2.45.52.73,1.16,1.32,1.92,1.77.76.45,1.65.68,2.66.68s1.92-.2,2.72-.6c.81-.4,1.49-.93,2.05-1.61.56-.68.99-1.46,1.29-2.34.3-.88.45-1.79.45-2.74Z"/>
  </g>
  <path class="cls-1" d="M949.45,141.18c-.73,10.13-3.26,19.64-7.59,28.55-4.33,8.91-9.79,17.17-16.38,24.77-6.59,7.61-13.96,14.52-22.1,20.74-8.15,6.22-16.34,11.77-24.57,16.65l59.99,4.32-10.24,78.64-177.25-18.87,4.97-69.1c6.87-1.79,14.12-4.04,21.76-6.73,7.64-2.69,15.18-5.87,22.63-9.53,7.45-3.66,14.56-7.85,21.32-12.59,6.76-4.73,12.8-9.98,18.12-15.77,5.31-5.79,9.65-12.19,13.02-19.19,3.37-7.01,5.35-14.69,5.95-23.04.35-4.81-.2-9.11-1.65-12.9-1.44-3.79-3.6-7.03-6.46-9.72-2.86-2.69-6.24-4.77-10.14-6.26-3.9-1.49-8.13-2.4-12.68-2.73-3.8-.27-7.69-.14-11.67.4-3.98.54-7.93,1.43-11.83,2.68s-7.62,2.86-11.13,4.83c-3.52,1.97-6.7,4.26-9.56,6.85l-11.35-75.62c5.02-4.34,10.68-7.88,16.98-10.61,6.3-2.72,12.88-4.83,19.73-6.31,6.85-1.48,13.78-2.41,20.81-2.8,7.02-.38,13.89-.34,20.6.15,14.93,1.08,28.66,4.77,41.18,11.07,12.52,6.31,23.22,14.52,32.1,24.64,8.87,10.12,15.6,21.83,20.18,35.13,4.58,13.31,6.33,27.43,5.25,42.36Z"/>
  <polygon class="cls-3" points="330.5 70.13 30.44 111.25 22.38 55.81 323.52 22.17 330.5 70.13"/>
  <g>
    <path class="cls-2" d="M79.38,76.44l-.92-6.35-27.7,4.03-.73-5.05,33.28-4.84,1.66,11.4-5.58.81ZM54.82,102.06l-.74-5.05,27.7-4.03-.92-6.35,5.58-.81,1.66,11.4-33.28,4.84ZM60.14,98.44l-3.93-27.03,6.25-.91,3.93,27.03-6.25.91ZM60.97,86.63l-.66-4.52,12.74-1.85.66,4.52-12.74,1.85ZM71.67,89.3l-1.86-12.79,4.76-.69,1.86,12.79-4.76.69Z"/>
    <path class="cls-2" d="M88.46,68.29l-.69-4.71,10.39-1.51.69,4.71-10.39,1.51ZM92.52,96.58l-.69-4.71,15.68-2.28.69,4.71-15.68,2.28ZM97.12,94.39l-4.58-31.5,5.96-.87,4.58,31.5-5.96.87Z"/>
    <path class="cls-2" d="M143.87,89.74c-1.51.22-2.99.21-4.45-.02-1.46-.23-2.88-.64-4.25-1.22-1.38-.59-2.71-1.31-4-2.17-1.29-.86-2.53-1.81-3.73-2.85l3.43-.06,1.07,7.36-5.53.8-1.68-11.54,3.72-.74c1.03,1.03,2.15,1.91,3.36,2.65,1.2.74,2.45,1.35,3.73,1.81,1.28.47,2.54.79,3.77.95,1.23.16,2.38.17,3.44.02.99-.14,1.84-.4,2.54-.76.7-.36,1.23-.83,1.59-1.41.36-.58.48-1.23.38-1.97-.09-.61-.36-1.15-.83-1.62s-1.14-.89-2.02-1.25c-.89-.36-2.04-.69-3.46-.99-1.42-.3-3.12-.55-5.12-.75-2.73-.32-5.01-.87-6.84-1.63s-3.23-1.75-4.21-2.95c-.98-1.2-1.59-2.65-1.84-4.35-.27-1.86,0-3.54.83-5.06.83-1.51,2.01-2.76,3.56-3.73,1.54-.98,3.28-1.61,5.2-1.89s3.75-.23,5.5.13c1.74.37,3.38,1.1,4.91,2.18,1.53,1.09,2.94,2.57,4.23,4.44l-3.11-.14-1.08-7.45,5.53-.8,1.64,11.3-3.53.71c-1.03-1.45-2.21-2.62-3.53-3.51-1.33-.89-2.69-1.5-4.1-1.83-1.41-.33-2.82-.4-4.23-.2-1.12.16-2.1.45-2.92.87-.82.41-1.45.94-1.88,1.58-.43.64-.59,1.35-.47,2.16.08.58.33,1.09.74,1.54s.99.84,1.74,1.17c.75.33,1.72.63,2.91.9,1.18.27,2.59.5,4.22.69,2.63.34,5.01.83,7.11,1.47,2.11.64,3.83,1.55,5.16,2.74,1.33,1.18,2.14,2.75,2.43,4.7.28,1.89.02,3.59-.76,5.09-.78,1.51-1.97,2.74-3.56,3.71-1.59.97-3.47,1.61-5.61,1.92Z"/>
    <path class="cls-2" d="M164.13,52.47l4.8,32.99-5.96.87-4.11-28.28-4.86.71-.69-4.71,10.82-1.57ZM158.11,87.03l-.69-4.71,14.71-2.14.69,4.71-14.71,2.14ZM181.34,83.65l-1.83-12.6c-.12-.83-.33-1.56-.64-2.19-.3-.63-.69-1.14-1.16-1.53-.47-.39-1-.66-1.62-.82-.61-.16-1.3-.18-2.07-.07-.8.12-1.59.42-2.37.91-.78.49-1.54,1.13-2.27,1.93-.74.8-1.46,1.73-2.17,2.82-.71,1.08-1.41,2.3-2.1,3.64l-.69-4.76c.86-1.53,1.71-2.89,2.55-4.08.84-1.19,1.7-2.21,2.57-3.08.87-.86,1.81-1.55,2.82-2.06,1.01-.51,2.13-.85,3.38-1.03,1.35-.2,2.56-.15,3.65.13,1.09.28,2.04.82,2.86,1.6.82.78,1.49,1.8,2.02,3.07.53,1.27.92,2.78,1.18,4.54l1.85,12.69-5.96.87ZM177.44,84.22l-.69-4.71,14.04-2.04.69,4.71-14.04,2.04Z"/>
    <path class="cls-2" d="M206.44,80.69c-1.64.24-3.26.22-4.87-.05-1.61-.27-3.1-.8-4.48-1.58-1.37-.78-2.53-1.84-3.46-3.18-.93-1.34-1.53-2.94-1.8-4.8-.28-1.96-.18-3.75.32-5.38.5-1.63,1.3-3.07,2.39-4.33s2.38-2.28,3.85-3.07c1.47-.79,3.04-1.3,4.71-1.54,2.02-.29,3.84-.26,5.47.11,1.63.37,2.96,1.04,4,2s1.67,2.18,1.88,3.65c.22,1.54-.04,2.87-.79,3.99-.75,1.12-1.81,2.05-3.16,2.77-1.35.72-2.83,1.2-4.43,1.43-1.96.28-3.71.29-5.27.03-1.56-.26-3.11-.63-4.65-1.09l-.5-3.46c1.81.52,3.39.81,4.74.86,1.35.05,2.57,0,3.66-.16.96-.17,1.78-.41,2.47-.73.69-.31,1.21-.71,1.57-1.19.36-.48.49-1,.41-1.58-.11-.77-.56-1.34-1.36-1.72-.79-.38-1.76-.48-2.92-.31-.96.14-1.88.45-2.76.94-.88.49-1.64,1.11-2.28,1.88-.64.76-1.12,1.64-1.43,2.64-.31,1-.39,2.05-.22,3.18.21,1.41.72,2.57,1.54,3.48.82.91,1.83,1.54,3.03,1.89,1.2.35,2.47.43,3.81.23,1.76-.26,3.29-.77,4.59-1.55,1.29-.78,2.41-1.66,3.35-2.65l3.07,3.53c-.81.94-1.73,1.8-2.74,2.58-1.02.79-2.17,1.45-3.46,2-1.3.55-2.71.94-4.25,1.16Z"/>
    <path class="cls-2" d="M217.63,60.05l-.69-4.71,10.43-1.52.69,4.71-10.43,1.52ZM220.24,77.99l-.69-4.71,15.63-2.27.69,4.71-15.63,2.27ZM224.83,75.8l-3.08-21.16,5.96-.87,3.08,21.16-5.96.87ZM227.48,66.67l-.67-4.62c.92-1.8,1.96-3.45,3.13-4.95,1.17-1.5,2.43-2.72,3.79-3.67,1.35-.95,2.72-1.52,4.09-1.73l2.36-.34,1.47,10.1-5.19.76-.6-4.14c-.77.08-1.64.48-2.6,1.21-.96.73-1.94,1.71-2.93,2.96-1,1.24-1.95,2.71-2.84,4.42Z"/>
    <path class="cls-2" d="M244.46,56.15l-.69-4.71,9.23-1.34.69,4.71-9.23,1.34ZM250.42,46.1c-1.15.17-2.19,0-3.09-.51-.91-.51-1.43-1.22-1.57-2.15-.14-.99.15-1.87.87-2.63.72-.76,1.66-1.22,2.82-1.39,1.25-.18,2.31,0,3.19.52s1.39,1.29,1.54,2.28c.13.93-.14,1.76-.84,2.5-.7.74-1.67,1.2-2.92,1.38ZM247.07,74.09l-.69-4.71,15.63-2.27.69,4.71-15.63,2.27ZM251.67,71.89l-3.08-21.16,5.96-.87,3.08,21.16-5.96.87Z"/>
    <path class="cls-2" d="M261.87,53.62l-.69-4.71,17.7-2.58.69,4.71-17.7,2.58ZM264.48,71.55l-.69-4.71,17.12-2.49.69,4.71-17.12,2.49ZM268.93,68.4l-3.38-23.23c-.29-1.99-.13-3.75.48-5.3.61-1.54,1.6-2.81,2.96-3.79,1.36-.98,3.01-1.62,4.93-1.9,1.67-.24,3.19-.24,4.57,0,1.38.24,2.83.64,4.35,1.21l-1.45,4.88c-1.12-.52-2.14-.88-3.05-1.08s-1.88-.22-2.91-.07c-1,.15-1.82.46-2.46.95-.65.49-1.11,1.09-1.38,1.82-.27.73-.35,1.49-.23,2.29l3.4,23.37-5.82.85Z"/>
    <path class="cls-2" d="M282.84,50.56l-.69-4.71,17.7-2.58.69,4.71-17.7,2.58ZM285.45,68.5l-.69-4.71,17.12-2.49.69,4.71-17.12,2.49ZM289.9,65.35l-3.38-23.23c-.29-1.99-.13-3.75.48-5.3s1.6-2.81,2.96-3.79c1.36-.98,3.01-1.62,4.93-1.9,1.67-.24,3.19-.24,4.57,0,1.38.24,2.83.64,4.35,1.21l-1.45,4.88c-1.12-.52-2.14-.88-3.05-1.08-.91-.19-1.88-.22-2.91-.07-.99.15-1.82.46-2.46.95-.65.49-1.11,1.09-1.38,1.82-.27.73-.35,1.49-.23,2.29l3.4,23.37-5.82.85Z"/>
  </g>
</svg>