<?xml version="1.0" encoding="UTF-8"?>
<svg id="Capa_1" data-name="Capa 1" xmlns="http://www.w3.org/2000/svg" viewBox="0 0 722.82 682.16" width="100%" height="100%" preserveAspectRatio="none">
  <defs>
    <style>
      .cls-1 {
        fill: #f4c356;
        stroke: #e8b44d;
        stroke-miterlimit: 10;
        stroke-width: 4px;
      }
    </style>
  </defs>
  <path class="cls-1" d="M640.08,247.5c-22.37-2.71-41.94,11.29-47.91,31.17l-148.59-22.05-63.91-130.62c15.94-7.75,26.54-24.78,24.74-44.07-2.01-21.65-20.19-38.94-41.91-39.96-25.41-1.2-46.4,19.05-46.4,44.2,0,18.59,11.46,34.5,27.71,41.05l-64.06,128.85-148.8,21.24c-6.35-19.44-25.79-32.97-47.91-30.14-19.91,2.55-35.88,18.79-38.12,38.74-3.01,26.74,17.83,49.39,43.96,49.39,16.6,0,31.07-9.15,38.64-22.67l101.07,99.05-25.06,143.22c-6.2-2.49-13.08-3.61-20.3-3.01-21.85,1.84-39.4,20.14-40.38,42.05-1.14,25.37,19.09,46.3,44.21,46.3,23.27,0,42.34-17.96,44.12-40.77.73-7.13-.33-14.52-3.04-21.82l132.86-69.22,128.14,67.89c-4.43,8.91-5.95,19.52-3.29,30.6,4.7,19.59,22.72,33.09,42.87,33.32h.04s.02,0,.04,0c.48,0,.96-.01,1.44-.03.18,0,.36-.01.53-.02.49-.02.99-.05,1.47-.09,0,0,0,0,0,0,23.66-1.82,42.11-22.26,40.73-46.69-1.23-21.78-18.87-39.83-40.62-41.54-5.21-.41-10.25.09-14.98,1.35l-23.68-140.77,102.42-99.11c7.62,13.34,21.99,22.34,38.45,22.34,26.12,0,46.96-22.63,43.97-49.35-2.24-20.08-18.39-36.39-38.44-38.82Z"/>
</svg>